# xmcd
#
# Track frame offsets:
# 150
# 15930
# 30094
# 46995
# 61729
# 76691
# 88311
# 103032
# 119073
# 137126
# 154275
# 170749
#
# Disc length: 2474 seconds
#
#
# Revision: 0
# Processed by: cddbd v1.5.2PL0 Copyright (c) Steve Scherf et al.
# Submitted via: FreeRIP 2.951 
#
DISCID=9109a80c
DTITLE=Roberta Miranda - De 1990 a 1996
DYEAR=2005
DGENRE=Country
TTITLE0=Meu chão
TTITLE1=Me dá um beijo
TTITLE2=Moreno
TTITLE3=É preciso saber
TTITLE4=Carinho
TTITLE5=Vamos bailar
TTITLE6=Pimenta malagueta
TTITLE7=Prá ninguém ficar parado
TTITLE8=Danças das chamas
TTITLE9=Este bem
TTITLE10=Tudo em voce me atrai
TTITLE11=Meus momentos
EXTD=
EXTT0=
EXTT1=
EXTT2=
EXTT3=
EXTT4=
EXTT5=
EXTT6=
EXTT7=
EXTT8=
EXTT9=
EXTT10=
EXTT11=
PLAYORDER=
